<svg width="1600" height="900" viewBox="0 0 1600 900" fill="none" xmlns="http://www.w3.org/2000/svg">
  <rect width="1600" height="900" fill="#081018"/>
  <circle cx="1260" cy="182" r="210" fill="#29C8D5" fill-opacity="0.16"/>
  <rect x="150" y="170" width="420" height="460" rx="34" fill="#0D1117" stroke="#29C8D5" stroke-opacity="0.22"/>
  <rect x="204" y="242" width="212" height="58" rx="20" fill="#29C8D5" fill-opacity="0.18"/>
  <rect x="204" y="334" width="276" height="58" rx="20" fill="white" fill-opacity="0.08"/>
  <rect x="300" y="426" width="216" height="58" rx="20" fill="#29C8D5" fill-opacity="0.18"/>
  <path d="M588 398C690 354 782 332 902 332H1256C1342 332 1412 402 1412 488C1412 574 1342 644 1256 644H944C810 644 700 604 588 530" stroke="#29C8D5" stroke-width="10" stroke-linecap="round"/>
  <text x="660" y="270" fill="white" font-family="Arial, sans-serif" font-size="74" font-weight="700">Conversational</text>
  <text x="660" y="350" fill="#29C8D5" font-family="Arial, sans-serif" font-size="74" font-weight="700">Everything</text>
  <text x="660" y="432" fill="#9FB2C8" font-family="Arial, sans-serif" font-size="28">Why the next website experience feels more like a dialogue.</text>
</svg>
